<svg width="22" height="22" viewBox="0 0 22 22" fill="none" xmlns="http://www.w3.org/2000/svg">
<path d="M9.6144 16.7956L10.492 14.7854C11.2731 12.9966 12.6789 11.5726 14.4325 10.7942L16.8482 9.7219C17.6162 9.381 17.6162 8.26368 16.8482 7.92277L14.5079 6.88394C12.7092 6.08552 11.2782 4.60881 10.5105 2.75894L9.6215 0.616731C9.2916 -0.178234 8.19319 -0.178232 7.8633 0.616731L6.97427 2.75892C6.20657 4.60881 4.77553 6.08552 2.97685 6.88394L0.63658 7.92277C-0.131463 8.26368 -0.131464 9.381 0.63658 9.7219L3.0523 10.7942C4.80589 11.5726 6.21171 12.9966 6.99275 14.7854L7.8704 16.7956C8.20776 17.5682 9.277 17.5682 9.6144 16.7956ZM18.4014 21.6899L18.6482 21.1242C19.0882 20.1156 19.8807 19.3125 20.8695 18.8732L21.6299 18.5353C22.0412 18.3526 22.0412 17.7549 21.6299 17.5722L20.9121 17.2532C19.8978 16.8026 19.0911 15.9698 18.6586 14.9269L18.4052 14.3156C18.2285 13.8896 17.6395 13.8896 17.4628 14.3156L17.2094 14.9269C16.777 15.9698 15.9703 16.8026 14.956 17.2532L14.2381 17.5722C13.8269 17.7549 13.8269 18.3526 14.2381 18.5353L14.9985 18.8732C15.9874 19.3125 16.7798 20.1156 17.2198 21.1242L17.4667 21.6899C17.6473 22.104 18.2207 22.104 18.4014 21.6899Z" fill="white"/>
</svg>
