<svg width="34" height="34" viewBox="0 0 34 34" fill="none" xmlns="http://www.w3.org/2000/svg">
<rect x="33.5593" y="33.5592" width="33.5592" height="33.5592" rx="16.7796" transform="rotate(180 33.5593 33.5592)" fill="#147FFF"/>
<path d="M28.3611 15.4782L22.9019 10.1284C22.4928 9.72749 21.9185 9.53351 21.3443 9.60317C20.0197 9.76397 18.4873 9.85613 16.8531 9.85613C15.2189 9.85613 13.6865 9.76393 12.3619 9.60317C11.7877 9.53351 11.2134 9.72752 10.8043 10.1284L5.34511 15.4782C4.61116 16.1974 4.61116 17.3636 5.34511 18.0828L10.8043 23.4326C11.2134 23.8335 11.7877 24.0275 12.3619 23.9578C13.6865 23.797 15.2189 23.7048 16.8531 23.7048C18.4872 23.7048 20.0196 23.797 21.3443 23.9578C21.9185 24.0275 22.4928 23.8335 22.9019 23.4326L28.3611 18.0828C29.095 17.3636 29.095 16.1974 28.3611 15.4782ZM16.8531 20.948C9.98626 20.948 8.26887 20.1151 8.26887 16.7805C8.26887 13.4459 9.98623 12.613 16.8531 12.613C23.72 12.613 25.4373 13.4459 25.4373 16.7805C25.4373 20.1151 23.72 20.948 16.8531 20.948Z" fill="white"/>
<path d="M12.9787 14.723H12.0901C11.9794 14.723 11.8898 14.8107 11.8898 14.9188V18.6426C11.8898 18.7508 11.9794 18.8385 12.0901 18.8385H12.9787C13.0893 18.8385 13.179 18.7508 13.179 18.6426V14.9188C13.179 14.8107 13.0893 14.723 12.9787 14.723Z" fill="white"/>
<path d="M21.1578 16.6896L22.1547 17.6657C22.2328 17.7421 22.2328 17.8662 22.1548 17.9427L21.5274 18.5575C21.4493 18.634 21.3228 18.634 21.2448 18.5575L19.3386 16.6895C19.2606 16.6131 19.2606 16.4892 19.3385 16.4127L20.1063 15.6593L21.2448 14.5437C21.3228 14.4672 21.4493 14.4672 21.5274 14.5437L22.1549 15.1586C22.2329 15.2351 22.2329 15.359 22.1549 15.4355L21.1577 16.4126C21.0797 16.4891 21.0797 16.6131 21.1578 16.6896L21.1578 16.6896Z" fill="white"/>
</svg>
