<svg width="42" height="41" viewBox="0 0 42 41" fill="none" xmlns="http://www.w3.org/2000/svg">
<rect x="0.949341" width="40.271" height="40.271" rx="20.1355" fill="#0D6BDC"/>
<g clip-path="url(#clip0_43_51)">
<path d="M28.3957 16.0482L28.1888 16.5228C28.0374 16.8703 27.5569 16.8703 27.4054 16.5228L27.1986 16.0482C26.8299 15.202 26.1657 14.5282 25.337 14.1596L24.6996 13.8762C24.3551 13.7229 24.3551 13.2214 24.6996 13.0682L25.3013 12.8005C26.1514 12.4225 26.8274 11.7238 27.1898 10.8488L27.4022 10.336C27.5503 9.97851 28.044 9.97851 28.192 10.336L28.4044 10.8488C28.7668 11.7238 29.4429 12.4225 30.2929 12.8005L30.8946 13.0682C31.2392 13.2214 31.2392 13.7229 30.8946 13.8762L30.2573 14.1596C29.4285 14.5282 28.7644 15.202 28.3957 16.0482ZM18.1489 15.1018H16.4709V25.1695H18.1489V15.1018ZM14.3735 18.4577H12.6955V21.8136H14.3735V18.4577ZM21.9243 11.7458H20.2463V28.5254H21.9243V11.7458ZM25.6997 16.7797H24.0217V25.1695H25.6997V16.7797ZM29.4751 18.4577H27.7971V21.8136H29.4751V18.4577Z" fill="white"/>
</g>
<defs>
<clipPath id="clip0_43_51">
<rect width="20" height="30" fill="white" transform="translate(11)"/>
</clipPath>
</defs>
</svg>
